<svg width="13" height="25" viewBox="0 0 13 25" fill="none" xmlns="http://www.w3.org/2000/svg">
<path d="M8.10725 13.8644V24.1479H4.35847V13.8644V13.3644H3.85847H0.5V9.90375H3.85847H4.35847V9.40375V6.00407C4.35847 4.16791 4.89525 2.80492 5.78324 1.90235C6.67078 1.00022 7.9662 0.5 9.59853 0.5C10.4028 0.5 11.2319 0.573107 11.8645 0.647278C12.1126 0.676371 12.329 0.70545 12.5 0.729976V3.59916H11.0838C10.0288 3.59916 9.2559 3.93641 8.75695 4.52229C8.2706 5.09339 8.10725 5.82784 8.10725 6.50906V9.40375V9.90375H8.60725H12.241L11.718 13.3644H8.60725H8.10725V13.8644Z" fill="white" stroke="white"/>
</svg>
