<svg width="25" height="25" viewBox="0 0 25 25" fill="none" xmlns="http://www.w3.org/2000/svg">
<path d="M24.4127 7.266L24.4127 7.266L24.413 7.27075C24.529 9.28658 24.529 15.3613 24.413 17.3771L24.4128 17.3805C24.3157 19.291 23.8788 20.8962 22.5421 22.2143L22.5414 22.215C21.2038 23.5391 19.573 23.9712 17.6328 24.0618L17.6328 24.0618L17.6282 24.062C15.5833 24.1765 9.41675 24.1765 7.37178 24.062L7.36853 24.0619C5.42788 23.9659 3.80121 23.534 2.4572 22.2136C1.11566 20.8957 0.678952 19.2912 0.587289 17.3819L0.587016 17.3771C0.470995 15.3613 0.470995 9.28108 0.587016 7.26525L0.587027 7.26525L0.587197 7.26191C0.684393 5.35026 1.11614 3.74622 2.4572 2.42878C3.801 1.10865 5.43291 0.676656 7.36723 0.586076L7.36723 0.586097L7.37178 0.585842C9.41675 0.471386 15.5833 0.471386 17.6282 0.585853L17.6315 0.586014C19.5728 0.682002 21.2042 1.11424 22.5421 2.43361L22.5428 2.43428C23.8843 3.75219 24.321 5.35666 24.4127 7.266ZM20.0525 22.398L20.0542 22.3973C21.2779 21.9133 22.2227 20.9838 22.7099 19.7765C23.0742 18.8737 23.1981 17.4187 23.2417 16.0384C23.2734 15.0327 23.2629 14.0074 23.2545 13.1846C23.2512 12.8622 23.2482 12.5708 23.2482 12.3239C23.2482 12.077 23.2512 11.7857 23.2545 11.4634C23.2629 10.6411 23.2734 9.61669 23.2417 8.61151C23.198 7.2316 23.0741 5.77709 22.7101 4.87198L22.7094 4.8702C22.217 3.65926 21.2731 2.72895 20.053 2.25014L20.0516 2.24961C19.1403 1.89504 17.6691 1.77278 16.2691 1.72909C15.242 1.69703 14.1958 1.70692 13.3584 1.71483C13.0385 1.71786 12.7491 1.72059 12.5028 1.72059C12.252 1.72059 11.9564 1.71764 11.6294 1.71438C10.7956 1.70606 9.75766 1.6957 8.73882 1.72702C7.33933 1.77004 5.86769 1.89224 4.95313 2.24993L4.95312 2.24993L4.95138 2.25062C3.72763 2.73456 2.78291 3.66408 2.29567 4.87143L2.29512 4.87281C1.93427 5.7747 1.81032 7.22878 1.76601 8.60921C1.73349 9.62253 1.74352 10.655 1.75155 11.4809C1.75462 11.7962 1.75739 12.0814 1.75739 12.3239C1.75739 12.5709 1.7544 12.8622 1.75109 13.1845C1.74265 14.0068 1.73214 15.0312 1.76391 16.0364C1.80753 17.4163 1.93143 18.8708 2.29545 19.7759L2.29617 19.7777C2.78861 20.9886 3.73251 21.9189 4.95259 22.3977L4.95395 22.3983C5.86525 22.7529 7.33646 22.8751 8.73649 22.9188C9.76359 22.9509 10.8098 22.941 11.6472 22.9331C11.9671 22.93 12.2565 22.9273 12.5028 22.9273C12.7535 22.9273 13.0491 22.9302 13.3762 22.9335C14.21 22.9418 15.2479 22.9522 16.2668 22.9209C17.6663 22.8779 19.1379 22.7557 20.0525 22.398ZM6.59453 12.3239C6.59453 9.1087 9.2252 6.50454 12.5028 6.50454C15.7804 6.50454 18.411 9.1087 18.411 12.3239C18.411 15.5392 15.7804 18.1434 12.5028 18.1434C9.2252 18.1434 6.59453 15.5392 6.59453 12.3239ZM7.83659 12.3239C7.83659 14.873 9.94144 16.9324 12.5028 16.9324C15.0641 16.9324 17.169 14.873 17.169 12.3239C17.169 9.77528 15.0702 7.7155 12.5028 7.7155C9.93543 7.7155 7.83659 9.77528 7.83659 12.3239ZM20.1679 5.74604C20.1679 6.28162 19.7303 6.72002 19.1732 6.72002C18.6129 6.72002 18.1785 6.27854 18.1785 5.74604C18.1785 5.21475 18.6173 4.77206 19.1732 4.77206C19.7291 4.77206 20.1679 5.21475 20.1679 5.74604Z" fill="white" stroke="white"/>
</svg>
