<svg width="25" height="25" viewBox="0 0 25 25" fill="none" xmlns="http://www.w3.org/2000/svg">
<path d="M3.35045 21.1268V21.6268H3.85045H7.5558H7.56138H8.06138V21.1268V9.364V8.864H7.56138H3.85045H3.35045V9.364V21.1268ZM21.4453 21.6268H21.9453V21.1268V14.6787C21.9453 13.0824 21.7752 11.5531 21.049 10.4177C20.2899 9.23105 18.9933 8.5724 16.9978 8.5724C15.6999 8.5724 14.6632 9.03075 13.9375 9.64914V9.364V8.864H13.4375H9.88281H9.38281V9.364V21.1268V21.6268H9.88281H13.5882H14.0882V21.1268V15.3059C14.0882 14.548 14.166 13.9068 14.4137 13.4643C14.531 13.2547 14.6847 13.0934 14.8917 12.9805C15.1019 12.8658 15.3959 12.7854 15.8147 12.7854C16.2103 12.7854 16.463 12.8759 16.6321 12.9926C16.8018 13.1096 16.9297 13.2824 17.0247 13.5195C17.2265 14.023 17.24 14.7008 17.24 15.4049V21.1268V21.6268H17.74H21.4453ZM1.78013 0.5H23.2143C23.9229 0.5 24.5 1.07653 24.5 1.77707V22.8708C24.5 23.5714 23.9229 24.1479 23.2143 24.1479H1.78013C1.07353 24.1479 0.5 23.5734 0.5 22.8708V1.77707C0.5 1.0745 1.07353 0.5 1.78013 0.5ZM3.05469 5.63931C3.05469 7.08764 4.24423 8.25748 5.70312 8.25748C7.16117 8.25748 8.35156 7.09399 8.35156 5.63931C8.35156 4.19013 7.15559 3.02113 5.70312 3.02113C4.24423 3.02113 3.05469 4.19097 3.05469 5.63931Z" fill="white" stroke="white"/>
</svg>
