<svg width="30" height="30" viewBox="0 0 30 30" fill="none" xmlns="http://www.w3.org/2000/svg">
<path d="M0.5 2.5C0.5 1.31824 1.30326 0.5 2.14286 0.5H27.8571C28.6967 0.5 29.5 1.31824 29.5 2.5C29.5 3.68176 28.6967 4.5 27.8571 4.5H2.14286C1.30326 4.5 0.5 3.68176 0.5 2.5ZM0.5 15C0.5 13.8182 1.30326 13 2.14286 13H27.8571C28.6967 13 29.5 13.8182 29.5 15C29.5 16.1818 28.6967 17 27.8571 17H2.14286C1.30326 17 0.5 16.1818 0.5 15ZM29.5 27.5C29.5 28.6818 28.6967 29.5 27.8571 29.5H2.14286C1.30326 29.5 0.5 28.6818 0.5 27.5C0.5 26.3182 1.30326 25.5 2.14286 25.5H27.8571C28.6967 25.5 29.5 26.3182 29.5 27.5Z" fill="white" stroke="black"/>
</svg>
